# xmcd CD database file
#
# Track frame offsets:
#	150
#	35376
#	90498
#	139358
#
# Disc length: 2311 seconds
#
# Revision: 1
# Processed by: cddbd v1.5.2PL0 Copyright (c) Steve Scherf et al.
# Submitted via: CDex 1.70beta2
#
DISCID=2d090504
DTITLE=ISIS - Not In Rivers, But In Drops
DYEAR=2008
DGENRE=Metal
TTITLE0=Not In Rivers, But In Drops (Album Version)
TTITLE1=Holy Tears (Thomas Dimuzio Remix)
TTITLE2=Not In Drops, But In Drops (Live At The Verizon Center, Washington D.C., 09/30/06)
TTITLE3=Not In Rivers, But In Drops (Video Directed By Sera Timms)
EXTD=YEAR: 2008
EXTT0=
EXTT1=
EXTT2=
EXTT3=
PLAYORDER=
